<svg xmlns="http://www.w3.org/2000/svg" xmlns:xlink="http://www.w3.org/1999/xlink" width="1000" height="962.57679" viewBox="0 0 1000 962.57679"><defs><style>.a{fill:url(#a);}.b{fill:url(#b);}.c{fill:#439f46;fill-rule:evenodd;}.d{fill:#fff;}</style><linearGradient id="a" x1="600.98314" y1="45.73055" x2="600.98314" y2="596.09236" gradientUnits="userSpaceOnUse"><stop offset="0" stop-color="#9c0000"/><stop offset="0.7" stop-color="#ff4b4b"/></linearGradient><linearGradient id="b" x1="441.42673" x2="441.42673" y2="643.06365" gradientUnits="userSpaceOnUse"><stop offset="0.3" stop-color="#ff1b2d"/><stop offset="0.43812" stop-color="#fa1a2c"/><stop offset="0.59385" stop-color="#ed1528"/><stop offset="0.75809" stop-color="#d60e21"/><stop offset="0.92723" stop-color="#b70519"/><stop offset="1" stop-color="#a70014"/></linearGradient></defs><title>Opera Mini 2015 (Stacked)</title><path d="M225.07122,809.45649c-16.43087,0-30.59206,7.74894-40.177,20.01688V812.17946H171.80627V962.57679h13.08795V908.64418c9.58494,12.26817,23.74613,20.01455,40.177,20.01455,30.53857,0,55.38491-26.73677,55.38491-59.60112C280.45613,836.19582,255.60979,809.45649,225.07122,809.45649Zm0,106.27106c-23.40983,0-42.4537-20.93454-42.4537-46.66994,0-25.73307,19.04387-46.66738,42.4537-46.66738,23.40869,0,42.45257,20.93431,42.45257,46.66738C267.52379,894.793,248.47991,915.72755,225.07122,915.72755Z"/><path d="M79.30359,765.546C35.57572,765.546,0,802.841,0,848.68422,0,894.5251,35.57572,931.8224,79.30359,931.8224c43.72885,0,79.30453-37.2973,79.30453-83.13818C158.60812,802.841,123.03244,765.546,79.30359,765.546Zm0,153.79029c-36.84312,0-66.81751-31.69484-66.81751-70.65211,0-38.9596,29.97439-70.65211,66.81751-70.65211,36.844,0,66.81845,31.69251,66.81845,70.65211C146.122,887.64149,116.14764,919.33633,79.30359,919.33633Z"/><path d="M463.57455,809.91532a29.60135,29.60135,0,0,0-12.74511,3.502,39.18146,39.18146,0,0,0-17.873,19.935c-.08628.20674-.18395.40883-.277.61092-.04093-.00675-.07953-.01582-.12046-.02279V813.10387h-.01582v-.20907H419.455V925.57925h13.10839v-.76069c0-20.27129.00233-38.108,0-58.37719a54.51539,54.51539,0,0,1,4.029-21.6543,40.91844,40.91844,0,0,1,11.0963-15.84509c5.94083-5.08922,12.74956-7.27407,20.5506-6.03176,1.26253.19976,2.51391.477,3.829.73115.747-3.729,2.523-8.47544,3.27928-12.25445A41.8643,41.8643,0,0,0,463.57455,809.91532Z"/><path d="M347.57667,809.636c-30.53857,0-55.38375,26.73677-55.38375,59.60112,0,32.86412,24.84518,59.5988,55.38375,59.5988,21.84522,0,40.77213-13.683,49.779-33.50015L386.08,888.77473c-6.74269,15.99044-21.44547,27.13212-38.50333,27.13212-22.11987,0-40.32214-18.70412-42.25931-42.47745h97.491c.09093-1.38533.15232-2.77972.15232-4.19226C402.96065,834.14492,380.1866,809.636,347.57667,809.636Zm0,12.93118c23.12616,0,39.29587,15.58394,42.00745,39.448H305.68528C308.86009,839.70669,326.40841,822.5672,347.57667,822.5672Z"/><path d="M568.1082,812.17946v17.29391c-9.58613-12.26794-23.7459-20.01688-40.177-20.01688-30.53857,0-55.38375,26.73933-55.38375,59.60112,0,32.86435,24.84518,59.60112,55.38375,59.60112,16.43113,0,30.5909-7.74638,40.177-20.01455v16.93507h13.08792V812.17946Zm-40.177,103.54809c-23.40985,0-42.45233-20.93454-42.45233-46.66994,0-25.73307,19.04248-46.66738,42.45233-46.66738s42.45257,20.93431,42.45257,46.66738C570.38374,894.793,551.341,915.72755,527.93117,915.72755Z"/><path d="M652.64062,772.33516h15.1922l59.42849,143.237,59.42933-143.237h15.1922V925.64694h-12.9583V795.33209c-1.34034,3.94225-8.04288,21.0256-8.04288,21.0256L734.85742,925.64694H719.66521l-46.0234-109.07026s-6.70255-17.30234-8.04289-21.24459V925.64694h-12.9583Z"/><path d="M945.39061,925.55025V856.86631c0-9.41142-2.43892-19.55968-9.75605-26.25626a33.55461,33.55461,0,0,0-44.65441,0c-7.12961,6.51559-9.56853,16.30189-9.56853,25.35135v69.58885H868.2779V812.343h13.13372V825.5753l.375-.56311c6.75457-10.13535,19.32534-15.37617,31.52069-15.37617,29.45682,0,45.217,19.90095,45.217,47.23029v68.68394Z"/><rect x="826.97166" y="777.52038" width="16.2309" height="17.38963"/><rect x="828.51721" y="812.32635" width="13.13893" height="113.32054"/><rect x="983.7691" y="777.52038" width="16.2309" height="17.38963"/><rect x="985.31466" y="812.32635" width="13.13893" height="113.32054"/><path class="a" d="M821.53183,321.53183A320.96984,320.96984,0,0,0,698.26947,68.39072,237.00322,237.00322,0,0,0,597.074,45.73055c-86.40838,0-162.7407,47.26594-208.638,118.63933,29.22672-42.10536,70.13-68.27075,115.40441-68.27075,88.82116,0,160.825,100.69821,160.825,224.9157s-72.00382,224.91572-160.825,224.91572c-49.57263,0-93.90461-31.36956-123.406-80.68587C425.122,544.14663,505.43127,596.09236,597.074,596.09236c48.02675,0,81.91672-11.10134,107.31127-26.3371A320.88169,320.88169,0,0,0,821.53183,321.53183Z"/><path class="b" d="M597.074,596.09236c-91.64276,0-171.952-51.94573-216.63958-130.84768C356.986,423.84326,343.34511,375.02014,343.0216,322.3848c-.00082-.1351-.00481-1.19025-.00524-1.5829q.00527-7.904.3973-15.674a287.75528,287.75528,0,0,1,45.02237-140.758C434.33333,92.99649,510.66565,45.73055,597.074,45.73055A237.00322,237.00322,0,0,1,698.26947,68.39072,320.152,320.152,0,0,0,500,0C322.42287,0,178.46817,143.9547,178.46817,321.53183S322.42287,643.06365,500,643.06365a320.2135,320.2135,0,0,0,204.3853-73.30839C678.99075,584.991,645.10078,596.09236,597.074,596.09236Z"/><path class="c" d="M846.32771,335.21538H566.45757c-90.75209,0-102.28125,90.46744-102.28125,123.96048V505.5528H718.361c116.80787,0,127.96674-99.54475,127.96674-132.86779Z"/><path class="d" d="M543.05265,378.10992h16.74748l26.86586,66.984,26.86587-66.984h16.72788V462.481H614.839V410.95859c-.709,2.16854-4.08708,12.87041-4.08708,12.87041l-16.496,38.652H579.07608L562.5703,423.829s-3.38788-10.70187-4.09688-12.87041V462.481H543.05265Z"/><rect class="d" x="641.781" y="378.10992" width="15.95252" height="84.37109"/><path class="d" d="M669.25478,378.10992h16.2017l35.15512,53.651s2.88173,4.85875,3.59073,6.66587v-60.3169H739.6231V462.481H723.5265l-35.20767-53.9523a72.598,72.598,0,0,1-3.64329-6.60573v60.558H669.25478Z"/><rect class="d" x="751.32161" y="378.10992" width="15.77527" height="84.37109"/></svg>